# xmcd
#
# Track frame offsets:
#	150
#	23161
#	45030
#	63978
#	84313
#	110486
#	128722
#	153704
#	175564
#	194622
#	220112
#	239912
#	256865
#	278854
#	306837
#
# Disc length: 4386 seconds
#
# Revision: 1
# Processed by: cddbd v1.5.2PL0 Copyright (c) Steve Scherf et al.
# Submitted via: audiograbber 1.83.01
#
DISCID=ca11200f
DTITLE=Григорий Лепс - Вся жизнь моя - дорога [CD1)
DYEAR=2007
DGENRE=Chanson
TTITLE0=Игрок
TTITLE1=Натали
TTITLE2=Крыса
TTITLE3=Лето
TTITLE4=Расскажи
TTITLE5=Шелест
TTITLE6=Спокойной ночи, господа
TTITLE7=Первый день рождения
TTITLE8=Приказ
TTITLE9=Ну и что
TTITLE10=Рюмка водки на столе
TTITLE11=Я верю, я дождусь
TTITLE12=Роковая любовь
TTITLE13=На струнах дождя
TTITLE14=Ангел завтрашнего дня
EXTD=//desc by ksw
EXTT0=
EXTT1=
EXTT2=
EXTT3=
EXTT4=
EXTT5=
EXTT6=
EXTT7=
EXTT8=
EXTT9=
EXTT10=
EXTT11=
EXTT12=
EXTT13=
EXTT14=
PLAYORDER=
